<svg width="689" height="689" viewBox="0 0 689 689" fill="none" xmlns="http://www.w3.org/2000/svg">
<g id="color-Icon">
<path id="Vector" d="M456.558 102.293C458.815 91.0111 460.319 79.7287 461.823 67.6942C437.754 57.164 412.181 50.3946 385.855 46.6338C405.412 66.1899 423.463 85.746 439.259 106.054C444.524 103.798 450.541 102.293 456.558 102.293Z" fill="url(#paint0_linear_301_27)"/>
<path id="Vector_2" d="M102.293 261.751C108.31 261.751 114.328 263.255 119.593 265.512C167.731 215.117 223.391 179.014 285.82 157.201C329.445 142.158 373.07 135.389 414.439 134.636C415.943 128.619 419.704 122.602 423.465 118.089C403.156 92.5155 379.839 67.6943 354.266 44.3774C351.257 44.3774 347.497 44.3774 344.488 44.3774C217.373 44.3774 109.063 123.354 65.4375 234.673C70.7026 244.451 76.7199 255.734 83.4893 267.016C88.7544 264.007 95.5238 261.751 102.293 261.751Z" fill="url(#paint1_linear_301_27)"/>
<path id="Vector_3" d="M501.687 480.629C503.944 462.577 517.483 448.286 535.534 443.773C535.534 437.004 535.534 430.234 535.534 422.713C533.278 337.719 511.465 259.495 471.601 188.04C467.088 189.544 462.575 190.296 457.31 190.296C427.976 292.589 382.846 376.079 336.965 440.764C343.734 447.534 348.247 457.312 348.999 467.09C395.633 479.125 446.78 483.637 501.687 480.629Z" fill="url(#paint2_linear_301_27)"/>
<path id="Vector_4" d="M102.293 327.941C114.34 327.941 124.106 318.175 124.106 306.128C124.106 294.081 114.34 284.315 102.293 284.315C90.2463 284.315 80.4805 294.081 80.4805 306.128C80.4805 318.175 90.2463 327.941 102.293 327.941Z" fill="url(#paint3_linear_301_27)"/>
<path id="Vector_5" d="M500.184 139.901C528.014 143.662 554.34 149.679 577.657 156.449C551.331 123.354 518.236 96.2761 479.876 77.4722C478.372 87.2502 476.868 97.7804 475.363 107.558C488.902 112.824 497.928 124.858 500.184 139.901Z" fill="url(#paint4_linear_301_27)"/>
<path id="Vector_6" d="M304.625 449.038C292.591 449.038 282.812 458.816 282.812 470.851C282.812 482.885 292.591 492.663 304.625 492.663C316.66 492.663 326.438 482.885 326.438 470.851C326.438 458.816 316.66 449.038 304.625 449.038Z" fill="url(#paint5_linear_301_27)"/>
<path id="Vector_7" d="M413.687 154.944C374.575 155.696 333.206 162.466 292.59 176.005C234.674 196.313 182.023 230.16 136.141 276.794C142.91 284.315 146.671 294.846 146.671 305.376C146.671 317.41 142.158 327.941 134.637 335.462C166.979 371.566 207.596 406.917 260.247 433.243C264.008 435.499 268.521 437.003 272.282 439.26C280.555 430.986 291.838 424.969 304.624 424.969C310.642 424.969 315.907 425.721 320.42 427.978C365.549 364.796 409.174 284.315 437.004 185.031C424.97 180.518 415.944 168.483 413.687 154.944Z" fill="url(#paint6_linear_301_27)"/>
<path id="Vector_8" d="M456.559 168.483C468.605 168.483 478.371 158.717 478.371 146.67C478.371 134.624 468.605 124.858 456.559 124.858C444.512 124.858 434.746 134.624 434.746 146.67C434.746 158.717 444.512 168.483 456.559 168.483Z" fill="url(#paint7_linear_301_27)"/>
<path id="Vector_9" d="M499.433 160.209C497.176 167.731 492.664 173.748 487.398 179.013C537.041 267.768 552.836 354.266 555.093 423.465C555.093 430.234 555.093 437.756 555.093 444.525C569.384 447.534 581.418 458.064 586.683 471.603C597.966 469.346 609.248 467.09 620.53 464.833C636.326 427.978 645.352 387.361 645.352 345.24C645.352 285.82 628.052 230.912 597.966 184.279C569.384 174.5 536.289 165.475 499.433 160.209Z" fill="url(#paint8_linear_301_27)"/>
<path id="Vector_10" d="M58.6699 306.128C58.6699 296.35 61.6785 287.324 67.6958 279.803C63.935 273.033 60.1742 267.016 56.4134 260.999C48.8918 287.324 44.3789 315.906 44.3789 345.24C44.3789 352.01 44.3789 358.027 45.1311 364.797C51.9005 353.514 59.4221 342.232 66.1915 331.702C60.9264 324.18 58.6699 315.154 58.6699 306.128Z" fill="url(#paint9_linear_301_27)"/>
<path id="Vector_11" d="M547.572 531.023C545.316 546.066 542.307 559.605 540.051 571.64C567.881 547.571 591.197 518.989 609.249 485.894C602.48 487.398 595.71 488.902 589.693 489.655C587.437 512.219 570.137 529.519 547.572 531.023Z" fill="url(#paint10_linear_301_27)"/>
<path id="Vector_12" d="M344.488 0C154.192 0 0 154.192 0 344.488C0 534.784 154.192 688.976 344.488 688.976C534.784 688.976 688.976 534.784 688.976 344.488C688.976 154.192 534.784 0 344.488 0ZM649.864 467.842C625.043 528.767 582.17 581.418 528.015 617.521C523.502 620.53 519.741 622.786 515.228 625.795C515.228 625.795 515.228 625.795 514.476 625.795C509.963 628.052 506.202 631.06 501.689 633.317C455.055 658.89 401.652 673.181 345.24 673.181C189.544 673.181 59.4205 565.622 24.8212 420.456C18.8039 396.387 15.0432 370.814 15.0432 344.488C15.0432 302.367 23.3169 261.751 37.6079 224.895C39.1122 220.382 40.6165 216.621 42.873 212.861C42.873 212.108 42.873 212.108 43.6251 212.108C45.1295 208.348 47.3859 204.587 48.8902 200.826C99.2848 97.0283 201.578 24.8212 321.923 16.5475C324.932 16.5475 328.693 15.7953 331.701 15.7953C336.214 15.7953 339.975 15.7953 344.488 15.7953C346.745 15.7953 349.001 15.7953 352.01 15.7953C391.874 16.5475 430.234 24.8212 465.586 38.36C531.775 64.6856 587.435 111.319 624.291 170.74C627.299 175.253 629.556 179.766 632.565 184.279C634.821 188.792 637.83 193.305 640.086 198.57C661.899 242.195 673.933 291.837 673.933 344.488C673.933 387.361 665.659 427.978 651.369 464.833C650.616 466.338 649.864 467.09 649.864 467.842Z" fill="url(#paint11_linear_301_27)"/>
<path id="Vector_13" d="M267.768 495.672C263.256 488.903 260.247 479.877 260.247 470.851C260.247 466.338 260.999 461.825 262.503 458.064C258.743 456.56 254.982 454.303 251.221 452.799C194.809 424.217 151.184 386.609 118.089 348.249C113.576 349.753 108.311 350.506 103.046 350.506C94.7722 350.506 88.0028 348.249 81.2334 344.488C69.951 361.036 59.4208 378.335 48.8906 396.387C62.4295 475.364 107.559 543.81 169.988 588.187C189.544 573.144 226.4 542.306 267.768 495.672Z" fill="url(#paint12_linear_301_27)"/>
<path id="Vector_14" d="M503.195 500.185C491.913 500.937 480.631 501.689 470.1 501.689C426.475 501.689 385.107 496.424 345.994 486.646C339.225 503.193 323.43 514.476 304.626 514.476C296.352 514.476 288.83 512.219 282.813 508.459C243.701 552.084 209.102 582.922 187.289 599.47C233.171 628.052 287.326 643.847 344.49 643.847C407.671 643.847 466.34 624.291 514.478 590.444C518.991 572.392 524.256 551.332 528.016 526.51C515.982 522.75 506.956 512.971 503.195 500.185Z" fill="url(#paint13_linear_301_27)"/>
<path id="Vector_15" d="M545.313 509.211C557.359 509.211 567.125 499.445 567.125 487.398C567.125 475.351 557.359 465.585 545.313 465.585C533.266 465.585 523.5 475.351 523.5 487.398C523.5 499.445 533.266 509.211 545.313 509.211Z" fill="url(#paint14_linear_301_27)"/>
</g>
<defs>
<linearGradient id="paint0_linear_301_27" x1="385.855" y1="46.6338" x2="461.823" y2="46.6338" gradientUnits="userSpaceOnUse">
<stop stop-color="#147D6C"/>
<stop offset="1" stop-color="#1EFFFF"/>
</linearGradient>
<linearGradient id="paint1_linear_301_27" x1="65.4375" y1="44.3774" x2="423.465" y2="44.3774" gradientUnits="userSpaceOnUse">
<stop stop-color="#147D6C"/>
<stop offset="1" stop-color="#1EFFFF"/>
</linearGradient>
<linearGradient id="paint2_linear_301_27" x1="336.965" y1="188.04" x2="535.534" y2="188.04" gradientUnits="userSpaceOnUse">
<stop stop-color="#147D6C"/>
<stop offset="1" stop-color="#1EFFFF"/>
</linearGradient>
<linearGradient id="paint3_linear_301_27" x1="80.4805" y1="284.315" x2="124.106" y2="284.315" gradientUnits="userSpaceOnUse">
<stop stop-color="#147D6C"/>
<stop offset="1" stop-color="#1EFFFF"/>
</linearGradient>
<linearGradient id="paint4_linear_301_27" x1="475.363" y1="77.4722" x2="577.657" y2="77.4722" gradientUnits="userSpaceOnUse">
<stop stop-color="#147D6C"/>
<stop offset="1" stop-color="#1EFFFF"/>
</linearGradient>
<linearGradient id="paint5_linear_301_27" x1="282.812" y1="449.038" x2="326.438" y2="449.038" gradientUnits="userSpaceOnUse">
<stop stop-color="#147D6C"/>
<stop offset="1" stop-color="#1EFFFF"/>
</linearGradient>
<linearGradient id="paint6_linear_301_27" x1="134.637" y1="154.944" x2="437.004" y2="154.944" gradientUnits="userSpaceOnUse">
<stop stop-color="#147D6C"/>
<stop offset="1" stop-color="#1EFFFF"/>
</linearGradient>
<linearGradient id="paint7_linear_301_27" x1="434.746" y1="124.858" x2="478.371" y2="124.858" gradientUnits="userSpaceOnUse">
<stop stop-color="#147D6C"/>
<stop offset="1" stop-color="#1EFFFF"/>
</linearGradient>
<linearGradient id="paint8_linear_301_27" x1="487.398" y1="160.209" x2="645.352" y2="160.209" gradientUnits="userSpaceOnUse">
<stop stop-color="#147D6C"/>
<stop offset="1" stop-color="#1EFFFF"/>
</linearGradient>
<linearGradient id="paint9_linear_301_27" x1="44.3789" y1="260.999" x2="67.6958" y2="260.999" gradientUnits="userSpaceOnUse">
<stop stop-color="#147D6C"/>
<stop offset="1" stop-color="#1EFFFF"/>
</linearGradient>
<linearGradient id="paint10_linear_301_27" x1="540.051" y1="485.894" x2="609.249" y2="485.894" gradientUnits="userSpaceOnUse">
<stop stop-color="#147D6C"/>
<stop offset="1" stop-color="#1EFFFF"/>
</linearGradient>
<linearGradient id="paint11_linear_301_27" x1="0" y1="0" x2="688.976" y2="0" gradientUnits="userSpaceOnUse">
<stop stop-color="#147D6C"/>
<stop offset="1" stop-color="#1EFFFF"/>
</linearGradient>
<linearGradient id="paint12_linear_301_27" x1="48.8906" y1="344.488" x2="267.768" y2="344.488" gradientUnits="userSpaceOnUse">
<stop stop-color="#147D6C"/>
<stop offset="1" stop-color="#1EFFFF"/>
</linearGradient>
<linearGradient id="paint13_linear_301_27" x1="187.289" y1="486.646" x2="528.016" y2="486.646" gradientUnits="userSpaceOnUse">
<stop stop-color="#147D6C"/>
<stop offset="1" stop-color="#1EFFFF"/>
</linearGradient>
<linearGradient id="paint14_linear_301_27" x1="523.5" y1="465.585" x2="567.125" y2="465.585" gradientUnits="userSpaceOnUse">
<stop stop-color="#147D6C"/>
<stop offset="1" stop-color="#1EFFFF"/>
</linearGradient>
</defs>
</svg>
