<svg width="2150" height="700" viewBox="0 0 2150 700" fill="none" xmlns="http://www.w3.org/2000/svg">
<path d="M41 392.125V5.16265H137.188C197.996 5.16265 227.847 38.8836 227.847 100.798V296.49C227.847 358.404 197.996 392.125 137.188 392.125H41ZM136.082 60.4429H101.808V336.844H136.082C155.43 336.844 167.039 326.894 167.039 299.254V98.0335C167.039 70.3934 155.43 60.4429 136.082 60.4429ZM266.544 392.125V5.16265H327.352V392.125H266.544ZM462.788 231.812V176.531H547.92V299.254C547.92 361.168 516.963 396.547 457.26 396.547C397.558 396.547 366.601 361.168 366.601 299.254V98.0335C366.601 36.1196 397.558 0.740234 457.26 0.740234C516.963 0.740234 547.92 36.1196 547.92 98.0335V135.624H490.429V94.1639C490.429 66.5238 478.267 56.0205 458.919 56.0205C439.571 56.0205 427.409 66.5238 427.409 94.1639V303.123C427.409 330.763 439.571 340.714 458.919 340.714C478.267 340.714 490.429 330.763 490.429 303.123V231.812H462.788ZM587.169 392.125V5.16265H647.977V392.125H587.169ZM674.512 60.4429V5.16265H862.465V60.4429H798.893V392.125H738.084V60.4429H674.512ZM1002.88 5.16265L1064.79 392.125H1003.43L992.926 321.919H918.298L907.795 392.125H851.962L913.875 5.16265H1002.88ZM954.783 73.7102L926.037 269.402H984.634L955.888 73.7102H954.783ZM1092.98 392.125V5.16265H1153.79V336.844H1253.85V392.125H1092.98ZM1255.51 226.284V171.003H1366.07V226.284H1255.51ZM1562.31 392.125L1540.75 185.929H1539.65L1518.09 392.125H1434.62L1391.5 5.16265H1450.65L1482.71 310.31H1483.81L1512.56 5.16265H1571.16L1601.01 312.521H1602.11L1633.07 5.16265H1686.14L1643.02 392.125H1562.31ZM1777.35 60.4429V168.239H1860.83V223.52H1777.35V336.844H1882.39V392.125H1716.54V5.16265H1882.39V60.4429H1777.35ZM2011.74 5.16265C2074.76 5.16265 2101.85 34.4612 2101.85 94.1639V107.984C2101.85 147.786 2089.69 172.662 2062.6 185.376V186.482C2095.21 199.196 2107.93 227.942 2107.93 268.85V300.359C2107.93 360.062 2076.42 392.125 2015.61 392.125H1919.98V5.16265H2011.74ZM2007.87 217.992H1980.78V336.844H2015.61C2036.06 336.844 2047.12 327.447 2047.12 298.701V264.98C2047.12 229.048 2035.51 217.992 2007.87 217.992ZM2010.08 60.4429H1980.78V162.711H2004.56C2027.22 162.711 2041.04 152.761 2041.04 121.804V100.245C2041.04 72.6046 2031.64 60.4429 2010.08 60.4429Z" fill="white"/>
<path d="M0.946244 528.694C0.946244 493.368 18.294 473.181 52.0434 473.181C85.7928 473.181 103.141 493.368 103.141 528.694V535.633H70.3375V526.486C70.3375 510.716 64.0292 504.723 52.9897 504.723C41.9501 504.723 35.6419 510.716 35.6419 526.486C35.6419 542.572 42.581 554.558 65.2908 574.429C94.309 599.978 103.456 618.272 103.456 643.505C103.456 678.832 85.7928 699.018 51.728 699.018C17.6632 699.018 0 678.832 0 643.505V629.942H32.8031V645.713C32.8031 661.484 39.7422 667.161 50.7818 667.161C61.8213 667.161 68.7604 661.484 68.7604 645.713C68.7604 629.627 61.8213 617.641 39.1114 597.77C10.0933 572.221 0.946244 553.927 0.946244 528.694ZM297.561 526.486V645.713C297.561 661.484 304.5 667.477 315.54 667.477C326.579 667.477 333.518 661.484 333.518 645.713V526.486C333.518 510.716 326.579 504.723 315.54 504.723C304.5 504.723 297.561 510.716 297.561 526.486ZM262.866 643.505V528.694C262.866 493.368 281.475 473.181 315.54 473.181C349.605 473.181 368.214 493.368 368.214 528.694V643.505C368.214 678.832 349.605 699.018 315.54 699.018C281.475 699.018 262.866 678.832 262.866 643.505ZM532.986 696.495V475.704H567.681V664.953H624.771V696.495H532.986ZM780.711 475.704H815.407V646.028C815.407 661.799 822.346 667.477 833.386 667.477C844.425 667.477 851.364 661.799 851.364 646.028V475.704H884.167V643.82C884.167 679.147 866.504 699.333 832.439 699.333C798.375 699.333 780.711 679.147 780.711 643.82V475.704ZM1040.11 507.246V475.704H1147.35V507.246H1111.08V696.495H1076.38V507.246H1040.11ZM1304.87 696.495V475.704H1339.56V696.495H1304.87ZM1539.03 526.486V645.713C1539.03 661.484 1545.97 667.477 1557.01 667.477C1568.05 667.477 1574.99 661.484 1574.99 645.713V526.486C1574.99 510.716 1568.05 504.723 1557.01 504.723C1545.97 504.723 1539.03 510.716 1539.03 526.486ZM1504.33 643.505V528.694C1504.33 493.368 1522.94 473.181 1557.01 473.181C1591.07 473.181 1609.68 493.368 1609.68 528.694V643.505C1609.68 678.832 1591.07 699.018 1557.01 699.018C1522.94 699.018 1504.33 678.832 1504.33 643.505ZM1848.58 696.495L1805.99 536.579H1805.36V696.495H1774.14V475.704H1817.66L1852.68 607.863H1853.31V475.704H1884.22V696.495H1848.58ZM2047.1 528.694C2047.1 493.368 2064.44 473.181 2098.19 473.181C2131.94 473.181 2149.29 493.368 2149.29 528.694V535.633H2116.49V526.486C2116.49 510.716 2110.18 504.723 2099.14 504.723C2088.1 504.723 2081.79 510.716 2081.79 526.486C2081.79 542.572 2088.73 554.558 2111.44 574.429C2140.46 599.978 2149.61 618.272 2149.61 643.505C2149.61 678.832 2131.94 699.018 2097.88 699.018C2063.81 699.018 2046.15 678.832 2046.15 643.505V629.942H2078.95V645.713C2078.95 661.484 2085.89 667.161 2096.93 667.161C2107.97 667.161 2114.91 661.484 2114.91 645.713C2114.91 629.627 2107.97 617.641 2085.26 597.77C2056.24 572.221 2047.1 553.927 2047.1 528.694Z" fill="white"/>
</svg>
